<mxfile host="app.diagrams.net" modified="2020-11-02T21:25:31.719Z" agent="5.0 (Windows)" etag="JOjPgDq_SoCcDNyBlLhC" version="13.8.8" type="github">
  <diagram id="ji7-BI1pd8g-lyMmlzXX" name="Page-1">
    <mxGraphModel dx="868" dy="508" grid="1" gridSize="10" guides="1" tooltips="1" connect="1" arrows="1" fold="1" page="1" pageScale="1" pageWidth="827" pageHeight="1169" math="0" shadow="0">
      <root>
        <mxCell id="0" />
        <mxCell id="1" parent="0" />
        <mxCell id="aDCEzrCjFW6PNW65o9UW-22" style="edgeStyle=orthogonalEdgeStyle;rounded=0;orthogonalLoop=1;jettySize=auto;html=1;exitX=0.25;exitY=1;exitDx=0;exitDy=0;entryX=0.5;entryY=0;entryDx=0;entryDy=0;strokeWidth=2;fillColor=#f8cecc;strokeColor=#b85450;" parent="1" source="aDCEzrCjFW6PNW65o9UW-1" target="aDCEzrCjFW6PNW65o9UW-8" edge="1">
          <mxGeometry relative="1" as="geometry">
            <Array as="points">
              <mxPoint x="400" y="290" />
              <mxPoint x="400" y="337" />
              <mxPoint x="312" y="337" />
            </Array>
          </mxGeometry>
        </mxCell>
        <mxCell id="aDCEzrCjFW6PNW65o9UW-23" style="edgeStyle=orthogonalEdgeStyle;rounded=0;orthogonalLoop=1;jettySize=auto;html=1;exitX=0.75;exitY=1;exitDx=0;exitDy=0;entryX=0.5;entryY=0;entryDx=0;entryDy=0;fillColor=#f8cecc;strokeColor=#b85450;strokeWidth=2;" parent="1" source="aDCEzrCjFW6PNW65o9UW-1" target="aDCEzrCjFW6PNW65o9UW-10" edge="1">
          <mxGeometry relative="1" as="geometry">
            <Array as="points">
              <mxPoint x="400" y="290" />
              <mxPoint x="400" y="337" />
              <mxPoint x="487" y="337" />
            </Array>
          </mxGeometry>
        </mxCell>
        <mxCell id="aDCEzrCjFW6PNW65o9UW-1" value="" style="rounded=1;whiteSpace=wrap;html=1;strokeWidth=3;fillColor=#dae8fc;strokeColor=#6c8ebf;" parent="1" vertex="1">
          <mxGeometry x="340" y="230" width="120" height="60" as="geometry" />
        </mxCell>
        <mxCell id="aDCEzrCjFW6PNW65o9UW-2" value="&lt;font style=&quot;font-size: 18px&quot;&gt;&lt;b&gt;Batmobile&lt;/b&gt;&lt;/font&gt;" style="text;html=1;align=center;verticalAlign=middle;whiteSpace=wrap;rounded=0;fontColor=#333333;strokeWidth=1;" parent="1" vertex="1">
          <mxGeometry x="350" y="250" width="100" height="20" as="geometry" />
        </mxCell>
        <mxCell id="aDCEzrCjFW6PNW65o9UW-20" style="edgeStyle=orthogonalEdgeStyle;rounded=0;orthogonalLoop=1;jettySize=auto;html=1;exitX=1;exitY=0.5;exitDx=0;exitDy=0;entryX=0;entryY=0.25;entryDx=0;entryDy=0;fillColor=#f5f5f5;strokeColor=#666666;strokeWidth=2;" parent="1" source="aDCEzrCjFW6PNW65o9UW-4" target="aDCEzrCjFW6PNW65o9UW-1" edge="1">
          <mxGeometry relative="1" as="geometry" />
        </mxCell>
        <mxCell id="aDCEzrCjFW6PNW65o9UW-4" value="" style="rounded=1;whiteSpace=wrap;html=1;fillColor=#f5f5f5;strokeColor=#666666;fontColor=#333333;strokeWidth=2;" parent="1" vertex="1">
          <mxGeometry x="150" y="180" width="120" height="60" as="geometry" />
        </mxCell>
        <mxCell id="aDCEzrCjFW6PNW65o9UW-5" value="Rocket" style="text;html=1;align=center;verticalAlign=middle;whiteSpace=wrap;rounded=0;fontColor=#333333;strokeWidth=2;" parent="1" vertex="1">
          <mxGeometry x="160" y="200" width="100" height="20" as="geometry" />
        </mxCell>
        <mxCell id="aDCEzrCjFW6PNW65o9UW-19" style="edgeStyle=orthogonalEdgeStyle;rounded=0;orthogonalLoop=1;jettySize=auto;html=1;exitX=0.5;exitY=1;exitDx=0;exitDy=0;entryX=0.25;entryY=0;entryDx=0;entryDy=0;fillColor=#f5f5f5;strokeColor=#666666;strokeWidth=2;" parent="1" source="aDCEzrCjFW6PNW65o9UW-6" target="aDCEzrCjFW6PNW65o9UW-1" edge="1">
          <mxGeometry relative="1" as="geometry" />
        </mxCell>
        <mxCell id="aDCEzrCjFW6PNW65o9UW-6" value="" style="rounded=1;whiteSpace=wrap;html=1;fillColor=#f5f5f5;strokeColor=#666666;fontColor=#333333;strokeWidth=2;" parent="1" vertex="1">
          <mxGeometry x="270" y="110" width="120" height="60" as="geometry" />
        </mxCell>
        <mxCell id="aDCEzrCjFW6PNW65o9UW-7" value="PEM pulse" style="text;html=1;align=center;verticalAlign=middle;whiteSpace=wrap;rounded=0;fontColor=#333333;strokeWidth=2;" parent="1" vertex="1">
          <mxGeometry x="280" y="130" width="100" height="20" as="geometry" />
        </mxCell>
        <mxCell id="aDCEzrCjFW6PNW65o9UW-8" value="" style="rounded=1;whiteSpace=wrap;html=1;strokeWidth=2;fillColor=#f8cecc;strokeColor=#b85450;" parent="1" vertex="1">
          <mxGeometry x="252" y="384" width="120" height="60" as="geometry" />
        </mxCell>
        <mxCell id="aDCEzrCjFW6PNW65o9UW-9" value="Joker" style="text;html=1;align=center;verticalAlign=middle;whiteSpace=wrap;rounded=0;strokeWidth=2;" parent="1" vertex="1">
          <mxGeometry x="262" y="404" width="100" height="20" as="geometry" />
        </mxCell>
        <mxCell id="aDCEzrCjFW6PNW65o9UW-10" value="" style="rounded=1;whiteSpace=wrap;html=1;strokeWidth=2;fillColor=#f8cecc;strokeColor=#b85450;" parent="1" vertex="1">
          <mxGeometry x="427" y="384" width="120" height="60" as="geometry" />
        </mxCell>
        <mxCell id="aDCEzrCjFW6PNW65o9UW-11" value="Joker Villain" style="text;html=1;align=center;verticalAlign=middle;whiteSpace=wrap;rounded=0;strokeWidth=2;" parent="1" vertex="1">
          <mxGeometry x="437" y="404" width="100" height="20" as="geometry" />
        </mxCell>
        <mxCell id="aDCEzrCjFW6PNW65o9UW-18" style="edgeStyle=orthogonalEdgeStyle;rounded=0;orthogonalLoop=1;jettySize=auto;html=1;exitX=0.5;exitY=1;exitDx=0;exitDy=0;entryX=0.75;entryY=0;entryDx=0;entryDy=0;fillColor=#f5f5f5;strokeColor=#666666;strokeWidth=2;" parent="1" source="aDCEzrCjFW6PNW65o9UW-12" target="aDCEzrCjFW6PNW65o9UW-1" edge="1">
          <mxGeometry relative="1" as="geometry" />
        </mxCell>
        <mxCell id="aDCEzrCjFW6PNW65o9UW-12" value="" style="rounded=1;whiteSpace=wrap;html=1;fillColor=#f5f5f5;strokeColor=#666666;fontColor=#333333;strokeWidth=2;" parent="1" vertex="1">
          <mxGeometry x="412" y="110" width="120" height="60" as="geometry" />
        </mxCell>
        <mxCell id="aDCEzrCjFW6PNW65o9UW-13" value="Pilot" style="text;html=1;align=center;verticalAlign=middle;whiteSpace=wrap;rounded=0;fontColor=#333333;strokeWidth=2;" parent="1" vertex="1">
          <mxGeometry x="422" y="130" width="100" height="20" as="geometry" />
        </mxCell>
        <mxCell id="aDCEzrCjFW6PNW65o9UW-21" style="edgeStyle=orthogonalEdgeStyle;rounded=0;orthogonalLoop=1;jettySize=auto;html=1;exitX=0;exitY=0.5;exitDx=0;exitDy=0;entryX=1;entryY=0.25;entryDx=0;entryDy=0;fillColor=#f5f5f5;strokeColor=#666666;strokeWidth=2;" parent="1" source="aDCEzrCjFW6PNW65o9UW-14" target="aDCEzrCjFW6PNW65o9UW-1" edge="1">
          <mxGeometry relative="1" as="geometry" />
        </mxCell>
        <mxCell id="aDCEzrCjFW6PNW65o9UW-14" value="" style="rounded=1;whiteSpace=wrap;html=1;fillColor=#f5f5f5;strokeColor=#666666;fontColor=#333333;strokeWidth=2;" parent="1" vertex="1">
          <mxGeometry x="532" y="180" width="120" height="60" as="geometry" />
        </mxCell>
        <mxCell id="aDCEzrCjFW6PNW65o9UW-15" value="&lt;div&gt;Tank&lt;/div&gt;" style="text;html=1;align=center;verticalAlign=middle;whiteSpace=wrap;rounded=0;fontColor=#333333;strokeWidth=2;" parent="1" vertex="1">
          <mxGeometry x="542" y="200" width="100" height="20" as="geometry" />
        </mxCell>
        <mxCell id="aDCEzrCjFW6PNW65o9UW-25" value="Launch Rocket: KO" style="text;html=1;align=center;verticalAlign=middle;whiteSpace=wrap;rounded=0;dashed=1;strokeWidth=2;dashPattern=1 1;strokeColor=#FF6666;" parent="1" vertex="1">
          <mxGeometry x="278" y="310" width="118" height="20" as="geometry" />
        </mxCell>
        <mxCell id="aDCEzrCjFW6PNW65o9UW-27" value="Launch PEM: Weapon" style="text;html=1;align=center;verticalAlign=middle;whiteSpace=wrap;rounded=0;dashed=1;strokeWidth=2;dashPattern=1 1;strokeColor=#FF6666;" parent="1" vertex="1">
          <mxGeometry x="404" y="310" width="126" height="20" as="geometry" />
        </mxCell>
      </root>
    </mxGraphModel>
  </diagram>
</mxfile>
